<svg id="svg" version="1.1" xmlns="http://www.w3.org/2000/svg" xmlns:xlink="http://www.w3.org/1999/xlink" width="400" height="317.6991150442478" viewBox="0, 0, 400,317.6991150442478"><g id="svgg"><path id="path0" d="M189.674 14.924 C 186.884 15.333,183.229 16.094,182.367 16.447 C 181.930 16.625,180.715 17.019,179.666 17.321 C 178.618 17.624,177.536 17.981,177.261 18.116 C 176.987 18.251,175.629 18.830,174.243 19.403 C 172.857 19.975,171.223 20.751,170.612 21.127 C 170.000 21.502,168.237 22.483,166.694 23.305 C 163.058 25.243,161.535 26.250,157.582 29.332 C 151.062 34.414,143.415 42.658,139.996 48.292 C 139.518 49.079,138.714 50.303,138.209 51.013 C 137.364 52.200,133.660 59.386,131.750 63.542 C 129.746 67.906,125.561 81.605,124.664 86.736 C 121.424 105.279,122.334 122.827,127.350 138.523 C 128.048 140.707,129.008 143.709,129.484 145.195 C 129.959 146.680,130.471 148.031,130.623 148.197 C 130.774 148.363,130.898 148.742,130.898 149.038 C 130.898 149.335,131.663 151.130,132.598 153.026 C 133.533 154.922,134.546 157.045,134.849 157.744 C 138.317 165.754,147.345 177.405,152.622 180.682 C 153.342 181.129,154.790 182.075,155.838 182.783 C 158.678 184.703,163.783 187.230,166.481 188.053 C 167.792 188.452,169.222 188.902,169.658 189.051 C 176.813 191.501,187.672 191.388,197.817 188.758 C 202.965 187.423,212.451 181.306,215.886 177.106 C 216.585 176.251,217.687 174.977,218.335 174.275 C 218.983 173.573,219.984 172.237,220.559 171.306 C 221.134 170.376,222.271 168.571,223.086 167.296 C 223.902 166.020,224.874 164.279,225.248 163.426 C 225.622 162.573,226.053 161.589,226.204 161.239 C 227.981 157.150,228.623 149.620,227.666 144.083 C 227.273 141.813,227.054 141.002,226.200 138.681 C 225.546 136.903,223.927 133.823,223.276 133.122 C 222.871 132.685,222.188 131.827,221.759 131.215 C 220.424 129.315,219.765 128.645,217.633 127.023 C 214.908 124.950,214.901 124.905,216.704 121.462 C 217.546 119.854,218.385 117.982,218.568 117.302 C 219.123 115.243,219.901 114.769,221.704 115.392 C 222.523 115.675,223.693 116.005,224.305 116.125 C 227.236 116.700,232.757 120.761,234.105 123.333 C 234.500 124.086,235.093 125.157,235.423 125.712 C 237.236 128.767,237.149 126.894,237.327 166.447 L 237.490 202.791 238.443 203.461 C 238.967 203.829,240.866 205.560,242.662 207.307 C 244.458 209.055,246.102 210.485,246.316 210.485 C 246.994 210.485,247.052 131.846,246.377 128.515 C 245.456 123.977,244.159 121.095,240.801 116.124 C 239.564 114.293,238.641 113.394,235.665 111.124 C 234.487 110.225,233.438 109.221,233.333 108.892 C 233.156 108.333,233.949 107.069,234.477 107.069 C 235.333 107.069,239.818 103.518,242.150 100.994 C 245.735 97.114,246.039 96.711,246.982 94.578 C 247.857 92.599,247.896 92.717,245.866 91.183 C 244.099 89.848,242.826 88.401,242.099 86.898 C 241.126 84.889,239.873 85.009,239.873 87.110 C 239.873 89.282,234.310 95.749,230.316 98.222 C 226.792 100.402,220.973 103.257,220.051 103.257 C 219.544 103.257,217.866 98.763,218.123 98.094 C 218.313 97.598,220.236 96.585,220.986 96.585 C 222.727 96.585,227.407 93.916,230.874 90.946 C 240.411 82.776,243.542 63.823,237.684 49.722 C 237.539 49.373,236.948 47.871,236.371 46.386 C 235.398 43.881,234.106 40.889,233.011 38.602 C 232.259 37.034,228.078 30.763,226.310 28.553 C 222.678 24.015,213.110 16.839,210.690 16.839 C 210.512 16.839,209.965 16.673,209.473 16.470 C 205.846 14.975,195.069 14.133,189.674 14.924 M304.369 15.570 C 292.508 18.044,281.128 27.524,275.753 39.408 C 275.480 40.013,274.885 41.295,274.431 42.256 C 273.350 44.547,271.656 48.775,270.358 52.423 C 266.466 63.358,267.965 77.797,273.896 86.494 C 274.580 87.496,275.139 88.448,275.139 88.609 C 275.139 89.335,281.252 94.266,283.617 95.448 C 285.744 96.511,288.774 97.538,289.783 97.538 C 291.303 97.538,291.518 98.214,290.849 100.898 C 290.197 103.516,289.498 104.095,288.083 103.187 C 287.692 102.936,286.227 102.260,284.829 101.685 C 282.242 100.620,281.438 100.217,279.746 99.131 C 279.222 98.794,278.292 98.267,277.681 97.958 C 275.251 96.732,269.498 90.124,269.017 88.006 C 268.109 84.012,267.102 83.356,265.934 85.996 C 265.551 86.861,264.370 88.348,263.032 89.649 C 260.887 91.736,260.786 91.899,260.984 92.954 C 261.679 96.658,270.428 105.942,274.408 107.199 C 276.265 107.785,275.717 109.019,272.582 111.316 C 268.568 114.257,264.845 119.632,262.982 125.179 L 261.967 128.197 261.870 168.790 C 261.780 206.144,261.814 209.400,262.292 209.583 C 262.578 209.693,262.905 209.652,263.019 209.493 C 263.132 209.334,263.725 208.795,264.337 208.296 C 264.948 207.796,266.700 206.235,268.229 204.826 L 271.009 202.264 271.016 167.613 C 271.023 128.510,270.946 129.850,273.463 125.073 C 275.642 120.936,280.292 117.149,284.509 116.077 C 285.384 115.854,286.681 115.501,287.390 115.292 C 289.439 114.689,290.231 115.056,290.723 116.834 C 290.953 117.667,291.482 119.124,291.898 120.073 C 294.042 124.956,294.040 125.444,291.872 127.046 C 288.986 129.178,283.405 135.978,283.398 137.372 C 283.396 137.568,283.210 138.086,282.982 138.523 C 280.096 144.070,279.997 156.950,282.801 162.030 C 282.946 162.294,283.281 163.058,283.545 163.727 C 284.082 165.093,288.193 171.842,289.382 173.312 C 290.676 174.911,293.344 177.959,294.519 179.179 C 296.323 181.052,302.895 185.808,304.899 186.689 C 305.918 187.138,307.180 187.701,307.705 187.941 C 311.544 189.700,320.678 191.609,325.308 191.620 C 331.370 191.634,341.146 189.406,347.159 186.640 C 353.561 183.695,363.521 175.649,366.411 171.088 C 366.965 170.214,368.139 168.499,369.020 167.276 C 369.902 166.052,370.947 164.408,371.344 163.622 C 371.741 162.836,372.200 161.978,372.364 161.716 C 373.027 160.658,378.076 149.773,378.077 149.400 C 378.077 149.179,378.214 148.750,378.380 148.447 C 379.458 146.476,383.693 132.203,384.105 129.150 C 384.246 128.102,384.513 126.600,384.698 125.814 C 386.455 118.328,386.455 98.008,384.698 90.113 C 384.509 89.262,384.249 87.761,384.120 86.777 C 383.668 83.325,379.190 68.555,377.364 64.496 C 374.692 58.553,371.115 51.805,369.954 50.516 C 369.561 50.079,368.941 49.150,368.578 48.451 C 367.943 47.230,366.328 45.108,362.449 40.401 C 358.854 36.038,353.155 31.035,346.148 26.094 C 343.674 24.349,335.846 20.326,332.010 18.827 C 328.198 17.338,327.490 17.106,325.894 16.825 C 325.065 16.679,324.228 16.462,324.034 16.342 C 321.918 15.034,309.310 14.540,304.369 15.570 M204.151 24.938 C 210.018 26.462,217.324 32.024,221.292 37.988 C 222.250 39.428,223.034 40.682,223.034 40.773 C 223.034 40.865,223.582 41.772,224.253 42.789 C 228.197 48.776,231.571 60.664,231.210 67.310 C 230.500 80.407,223.422 87.955,212.025 87.768 L 208.165 87.705 206.842 88.888 C 204.588 90.905,204.482 93.134,206.484 96.426 C 211.577 104.800,211.680 111.597,206.837 119.700 C 203.208 125.771,203.959 129.583,209.503 133.234 C 219.379 139.739,221.814 153.674,214.645 162.669 C 214.437 162.931,213.987 163.689,213.646 164.353 C 210.338 170.798,196.985 180.461,191.387 180.461 C 190.986 180.461,189.835 180.675,188.829 180.937 C 186.718 181.487,180.352 181.572,178.396 181.077 C 177.697 180.900,176.410 180.635,175.536 180.488 C 172.086 179.909,168.611 178.732,166.164 177.312 C 165.902 177.160,165.115 176.770,164.416 176.445 C 157.819 173.377,149.176 164.755,145.671 157.744 C 145.322 157.045,144.643 155.881,144.162 155.156 C 143.681 154.432,143.288 153.619,143.288 153.348 C 143.288 153.078,143.159 152.777,143.000 152.679 C 142.841 152.581,142.261 151.393,141.710 150.039 C 141.160 148.685,140.515 147.149,140.278 146.624 C 138.477 142.649,136.158 135.784,135.232 131.692 C 134.955 130.469,134.568 128.824,134.373 128.038 C 134.177 127.252,133.894 125.630,133.744 124.435 C 133.594 123.239,133.327 121.523,133.151 120.622 C 132.006 114.774,132.097 99.115,133.310 93.345 C 133.556 92.174,133.757 90.718,133.757 90.109 C 133.757 89.499,133.899 88.627,134.073 88.170 C 134.246 87.714,134.523 86.596,134.688 85.687 C 135.589 80.720,137.954 73.216,139.487 70.457 C 139.656 70.154,139.793 69.746,139.793 69.552 C 139.793 68.702,143.513 60.864,145.058 58.459 C 149.517 51.516,150.743 49.768,152.855 47.345 C 154.146 45.863,155.906 44.005,156.766 43.215 C 157.625 42.425,159.484 40.695,160.896 39.370 C 162.308 38.046,163.821 36.776,164.258 36.549 C 164.694 36.322,166.267 35.244,167.752 34.155 C 170.449 32.177,176.487 28.960,179.190 28.061 C 179.976 27.800,181.387 27.228,182.326 26.792 C 188.317 24.003,197.540 23.220,204.151 24.938 M320.095 25.259 C 321.493 25.551,324.058 26.349,325.796 27.033 C 327.533 27.717,329.083 28.276,329.240 28.276 C 329.398 28.276,331.272 29.121,333.406 30.154 C 342.386 34.501,351.758 42.165,358.324 50.530 C 359.226 51.679,362.828 57.146,362.828 57.365 C 362.828 57.466,363.175 58.004,363.599 58.560 C 364.538 59.791,367.394 65.513,368.290 67.958 C 368.648 68.937,369.330 70.596,369.806 71.644 C 370.947 74.160,373.088 80.847,373.773 84.035 C 374.074 85.433,374.522 87.372,374.769 88.345 C 375.016 89.317,375.218 90.514,375.218 91.004 C 375.218 91.493,375.430 93.057,375.688 94.478 C 376.942 101.381,376.942 114.332,375.687 121.249 C 375.429 122.670,375.218 124.332,375.218 124.942 C 375.218 125.553,375.004 126.660,374.742 127.403 C 374.480 128.146,374.265 129.116,374.265 129.559 C 374.265 130.002,374.059 131.093,373.807 131.982 C 373.556 132.871,373.038 134.742,372.658 136.140 C 371.995 138.573,371.050 141.226,370.420 142.418 C 370.258 142.726,369.899 143.656,369.622 144.484 C 369.345 145.311,368.927 146.418,368.694 146.942 C 368.460 147.466,367.886 148.824,367.418 149.960 C 366.644 151.838,365.724 153.683,363.463 157.886 C 359.250 165.720,352.019 172.988,344.587 176.859 C 340.673 178.897,339.529 179.390,337.411 179.954 C 336.275 180.256,334.662 180.724,333.826 180.994 C 331.907 181.614,319.395 181.701,317.871 181.105 C 317.347 180.899,316.346 180.609,315.647 180.458 C 311.867 179.645,309.653 178.501,304.422 174.658 C 301.598 172.584,300.297 171.345,298.753 169.262 C 298.373 168.749,297.581 167.806,296.993 167.167 C 294.936 164.930,291.862 159.297,290.810 155.838 C 290.131 153.606,289.988 146.750,290.594 145.480 C 290.794 145.061,291.210 144.003,291.519 143.129 C 292.770 139.596,295.569 136.202,299.122 133.909 C 304.497 130.442,305.764 126.263,302.860 121.580 C 300.821 118.292,299.300 112.963,299.291 109.070 C 299.281 104.871,300.941 98.957,302.968 95.974 C 304.334 93.964,304.084 91.451,302.345 89.712 L 300.957 88.324 296.921 88.324 C 291.487 88.324,288.933 87.526,285.029 84.607 C 278.526 79.747,275.637 65.825,279.204 56.542 C 279.369 56.111,279.753 54.901,280.057 53.852 C 280.361 52.804,281.023 50.962,281.528 49.760 C 282.033 48.558,282.446 47.451,282.446 47.301 C 282.446 46.985,286.160 40.642,287.725 38.284 C 294.986 27.347,306.975 22.523,320.095 25.259 M235.194 135.981 C 235.194 136.767,235.256 137.089,235.331 136.696 C 235.407 136.303,235.407 135.659,235.331 135.266 C 235.256 134.873,235.194 135.195,235.194 135.981 M235.225 170.294 C 235.225 172.129,235.277 172.879,235.341 171.962 C 235.406 171.044,235.406 169.543,235.341 168.626 C 235.277 167.708,235.225 168.459,235.225 170.294 M235.236 183.797 C 235.236 186.593,235.285 187.694,235.344 186.244 C 235.403 184.794,235.403 182.506,235.343 181.160 C 235.284 179.814,235.235 181.001,235.236 183.797 M331.552 200.328 C 331.212 200.584,330.667 200.794,330.339 200.794 C 329.529 200.794,327.637 202.280,327.369 203.126 C 327.250 203.504,326.816 204.255,326.404 204.796 C 325.992 205.336,325.655 205.911,325.655 206.072 C 325.655 206.233,325.012 207.037,324.226 207.857 C 323.439 208.678,322.796 209.496,322.796 209.676 C 322.796 209.856,322.523 210.326,322.189 210.720 C 321.856 211.115,320.856 212.295,319.967 213.344 C 319.079 214.392,318.079 215.822,317.746 216.521 C 317.414 217.220,316.769 218.113,316.315 218.505 C 315.860 218.897,315.486 219.397,315.484 219.617 C 315.481 219.836,314.802 220.681,313.974 221.494 C 312.402 223.039,311.866 223.721,311.388 224.782 C 311.231 225.131,310.588 225.910,309.959 226.512 C 309.331 227.114,308.817 227.743,308.817 227.909 C 308.817 228.438,306.568 230.977,306.099 230.977 C 305.851 230.977,305.442 231.469,305.191 232.071 C 304.939 232.673,303.865 233.981,302.804 234.978 C 301.742 235.974,300.874 236.973,300.874 237.197 C 300.874 237.947,297.047 241.532,296.421 241.368 C 296.044 241.270,295.791 241.424,295.689 241.816 C 295.596 242.169,295.251 242.415,294.846 242.415 C 294.291 242.415,294.200 242.544,294.372 243.087 C 294.595 243.789,292.623 245.890,291.728 245.903 C 291.195 245.911,289.942 246.715,288.145 248.204 C 287.347 248.864,286.397 249.404,286.034 249.404 C 285.671 249.404,285.291 249.619,285.191 249.881 C 285.090 250.143,284.814 250.357,284.577 250.357 C 284.340 250.357,283.810 250.715,283.400 251.152 C 282.894 251.690,282.313 251.946,281.597 251.946 C 281.016 251.946,280.540 252.091,280.540 252.268 C 280.540 252.445,280.080 253.001,279.518 253.503 C 278.636 254.292,278.555 254.486,278.922 254.929 C 279.453 255.569,279.905 255.588,279.905 254.970 C 279.905 254.712,280.256 254.412,280.686 254.304 C 281.116 254.196,281.634 253.907,281.837 253.662 C 282.040 253.417,282.582 253.215,283.041 253.213 C 283.500 253.211,284.462 252.874,285.178 252.465 C 286.351 251.794,286.514 251.771,286.835 252.230 C 287.160 252.694,287.223 252.690,287.535 252.184 C 287.980 251.464,289.516 250.675,290.472 250.675 C 290.884 250.675,291.498 250.465,291.838 250.209 C 292.177 249.952,292.768 249.738,293.150 249.732 C 293.533 249.727,293.935 249.579,294.043 249.404 C 294.151 249.230,294.556 249.087,294.944 249.087 C 295.332 249.087,295.894 248.801,296.193 248.451 C 296.492 248.102,297.000 247.816,297.320 247.816 C 297.641 247.816,298.246 247.451,298.665 247.005 C 299.210 246.425,299.633 246.246,300.150 246.375 C 300.660 246.503,300.874 246.417,300.874 246.086 C 300.874 245.826,301.195 245.444,301.589 245.236 C 301.982 245.028,302.890 244.379,303.607 243.795 C 304.324 243.210,305.131 242.732,305.400 242.732 C 305.669 242.732,306.683 241.875,307.654 240.826 C 308.624 239.778,309.615 238.920,309.856 238.920 C 310.097 238.920,310.613 238.581,311.002 238.166 C 311.391 237.752,312.233 237.144,312.872 236.816 C 313.511 236.488,314.374 235.826,314.789 235.346 C 315.205 234.865,315.753 234.472,316.007 234.472 C 316.261 234.472,316.446 234.293,316.418 234.075 C 316.312 233.257,316.454 232.883,316.872 232.883 C 317.108 232.883,317.685 232.528,318.153 232.095 C 318.621 231.661,319.261 231.168,319.576 231.000 C 319.891 230.831,320.492 230.193,320.910 229.582 C 321.676 228.465,322.483 228.006,323.508 228.104 C 323.852 228.137,324.000 227.995,323.899 227.732 C 323.641 227.059,330.354 220.446,331.180 220.559 C 331.683 220.628,331.878 220.456,331.961 219.872 C 332.106 218.843,336.819 214.138,337.705 214.138 C 338.083 214.138,338.364 213.932,338.364 213.655 C 338.364 213.390,338.700 212.639,339.112 211.987 C 339.523 211.336,339.957 210.494,340.077 210.117 C 340.196 209.740,340.503 209.351,340.759 209.253 C 341.080 209.130,341.223 208.588,341.223 207.495 C 341.223 206.626,341.366 205.827,341.541 205.719 C 342.065 205.395,341.899 204.878,341.303 204.976 C 340.427 205.120,339.952 204.649,339.952 203.635 C 339.952 203.121,339.845 202.700,339.714 202.699 C 339.583 202.698,339.019 202.269,338.460 201.746 C 337.902 201.223,337.179 200.794,336.853 200.794 C 336.528 200.794,335.984 200.584,335.645 200.328 C 335.305 200.071,334.384 199.861,333.598 199.861 C 332.812 199.861,331.891 200.071,331.552 200.328 M185.029 206.099 C 184.363 206.991,179.203 207.543,177.973 206.855 C 177.708 206.707,176.898 206.823,176.050 207.130 C 175.243 207.421,173.940 207.689,173.153 207.724 C 171.008 207.819,169.231 208.134,168.779 208.499 C 168.550 208.684,167.702 208.744,166.814 208.639 C 165.560 208.491,165.097 208.576,164.466 209.072 C 163.909 209.511,163.183 209.690,161.967 209.690 C 161.025 209.690,160.115 209.829,159.945 210.000 C 159.546 210.398,156.548 210.508,155.966 210.145 C 155.138 209.629,154.825 209.747,154.973 210.520 C 155.110 211.237,155.031 211.279,153.553 211.279 C 152.669 211.279,151.720 211.482,151.371 211.745 C 151.032 212.002,150.247 212.216,149.627 212.222 C 149.006 212.227,148.331 212.400,148.125 212.606 C 147.920 212.811,147.069 213.086,146.235 213.217 C 145.401 213.348,144.075 213.557,143.288 213.682 C 142.502 213.806,141.590 214.188,141.262 214.530 C 140.778 215.034,140.411 215.113,139.316 214.949 C 138.262 214.791,137.924 214.854,137.778 215.237 C 137.646 215.579,137.153 215.727,136.140 215.727 C 135.144 215.727,134.633 215.876,134.507 216.203 C 134.396 216.494,133.914 216.680,133.273 216.680 C 132.695 216.680,132.174 216.787,132.115 216.918 C 131.835 217.549,129.405 218.496,128.439 218.352 C 127.686 218.239,127.357 218.335,127.214 218.710 C 127.087 219.039,126.639 219.222,125.955 219.222 C 125.371 219.222,124.778 219.400,124.639 219.619 C 123.919 220.743,121.505 221.433,120.748 220.731 C 120.404 220.412,120.366 220.415,120.553 220.745 C 120.832 221.237,120.203 222.081,119.557 222.081 C 119.304 222.081,118.898 222.260,118.654 222.478 C 117.442 223.565,117.146 223.708,116.290 223.618 C 115.653 223.551,114.914 223.840,113.909 224.549 C 113.107 225.114,112.160 225.576,111.804 225.576 C 111.448 225.576,110.702 225.915,110.146 226.331 C 109.265 226.987,108.341 227.464,106.434 228.245 C 106.172 228.352,105.385 228.790,104.686 229.218 C 103.987 229.646,103.165 230.002,102.859 230.010 C 102.554 230.018,102.303 230.131,102.301 230.262 C 102.299 230.570,100.471 231.612,99.934 231.612 C 99.707 231.612,99.344 231.827,99.126 232.089 C 98.909 232.351,98.486 232.566,98.187 232.566 C 97.888 232.566,97.227 232.990,96.717 233.510 C 96.207 234.029,95.540 234.458,95.234 234.463 C 94.929 234.468,94.678 234.615,94.678 234.790 C 94.678 234.964,94.249 235.107,93.725 235.107 C 93.090 235.107,92.772 235.266,92.772 235.584 C 92.772 235.846,92.493 236.060,92.152 236.060 C 91.812 236.060,91.418 236.252,91.279 236.487 C 90.796 237.298,88.180 238.956,87.616 238.809 C 87.274 238.719,87.053 238.837,87.053 239.108 C 87.053 239.354,86.946 239.556,86.815 239.557 C 86.684 239.557,86.148 239.958,85.624 240.446 C 85.099 240.935,83.956 241.678,83.082 242.098 C 82.208 242.517,81.233 243.189,80.914 243.591 C 80.596 243.992,80.199 244.321,80.034 244.321 C 79.527 244.321,77.130 246.002,75.909 247.214 C 75.274 247.844,74.412 248.451,73.994 248.563 C 73.575 248.676,72.303 249.658,71.168 250.747 C 70.032 251.836,68.602 252.964,67.990 253.253 C 67.379 253.543,66.027 254.577,64.987 255.550 C 63.946 256.523,62.802 257.362,62.445 257.413 C 62.055 257.469,61.755 257.786,61.696 258.206 C 61.641 258.591,61.325 258.992,60.994 259.097 C 60.663 259.202,59.431 260.283,58.258 261.498 C 56.692 263.120,55.969 263.660,55.544 263.525 C 55.110 263.387,54.964 263.507,54.964 264.002 C 54.964 264.401,54.574 264.901,53.979 265.263 C 53.438 265.592,52.725 266.305,52.395 266.847 C 52.066 267.388,51.668 267.832,51.511 267.832 C 51.354 267.832,51.160 268.082,51.080 268.388 C 51.000 268.693,50.518 269.158,50.010 269.420 C 48.833 270.028,46.413 272.426,45.523 273.868 C 45.146 274.480,44.520 275.195,44.133 275.457 C 43.175 276.105,41.620 277.711,41.620 278.053 C 41.620 278.207,41.259 278.469,40.818 278.637 C 40.377 278.805,39.928 279.194,39.821 279.503 C 39.483 280.475,36.924 283.600,34.139 286.442 C 32.662 287.950,31.454 289.350,31.454 289.555 C 31.454 290.131,29.607 292.234,28.904 292.457 C 28.559 292.566,28.276 292.851,28.276 293.090 C 28.276 293.328,27.980 293.618,27.618 293.732 C 27.192 293.868,27.026 294.114,27.147 294.429 C 27.418 295.136,25.395 297.462,24.052 297.989 C 22.035 298.780,22.429 300.507,24.530 300.084 C 26.372 299.713,26.688 299.569,26.688 299.105 C 26.688 298.855,26.973 298.650,27.321 298.650 C 27.668 298.650,28.348 298.240,28.830 297.740 C 29.312 297.239,30.028 296.729,30.421 296.606 C 30.814 296.483,31.136 296.250,31.136 296.087 C 31.136 295.924,31.466 295.790,31.869 295.790 C 32.273 295.790,32.880 295.580,33.220 295.324 C 33.559 295.067,34.069 294.853,34.353 294.847 C 34.638 294.842,35.049 294.623,35.266 294.361 C 35.484 294.098,36.136 293.884,36.716 293.884 C 37.296 293.884,37.852 293.753,37.951 293.592 C 38.050 293.431,39.167 292.985,40.432 292.600 C 41.697 292.215,42.868 291.775,43.034 291.621 C 43.200 291.468,44.114 291.342,45.064 291.342 C 46.215 291.342,46.910 291.186,47.145 290.874 C 47.391 290.549,48.223 290.384,49.881 290.333 C 51.191 290.293,52.546 290.074,52.890 289.848 C 53.716 289.305,54.698 289.326,55.460 289.903 C 56.319 290.552,56.841 290.503,56.654 289.790 C 56.403 288.830,59.106 288.155,60.755 288.765 C 61.393 289.001,63.392 288.671,64.654 288.122 C 65.004 287.970,65.719 287.858,66.243 287.873 C 66.767 287.889,70.755 287.888,75.104 287.873 C 80.222 287.854,83.155 287.962,83.416 288.179 C 83.697 288.412,83.882 288.413,84.025 288.181 C 84.444 287.503,84.898 287.869,84.765 288.778 C 84.630 289.697,84.637 289.702,85.332 289.154 C 86.279 288.410,91.719 288.434,92.268 289.186 C 92.530 289.544,92.818 289.592,93.403 289.376 C 94.007 289.152,94.277 289.210,94.581 289.626 C 94.877 290.030,95.082 290.078,95.396 289.817 C 95.904 289.396,99.555 289.612,99.709 290.073 C 99.767 290.247,100.643 290.389,101.656 290.389 C 103.589 290.389,104.450 290.892,104.096 291.815 C 103.859 292.434,104.333 292.436,104.845 291.819 C 105.063 291.557,105.563 291.342,105.957 291.342 C 106.351 291.342,106.852 291.557,107.069 291.819 C 107.344 292.150,108.073 292.295,109.452 292.295 C 110.885 292.295,111.557 292.437,111.861 292.803 C 112.156 293.159,112.597 293.260,113.333 293.140 C 114.016 293.029,114.891 293.194,115.833 293.611 C 116.630 293.963,117.472 294.179,117.705 294.090 C 117.937 294.001,118.391 294.128,118.714 294.372 C 119.037 294.617,119.618 294.822,120.005 294.827 C 120.392 294.833,120.854 295.110,121.033 295.443 C 121.296 295.935,121.596 296.017,122.627 295.879 C 123.613 295.746,123.941 295.824,124.095 296.226 C 124.225 296.564,124.669 296.743,125.376 296.743 C 126.502 296.743,127.618 297.227,128.214 297.973 C 128.508 298.341,128.674 298.341,129.294 297.973 C 129.870 297.631,130.058 297.623,130.171 297.935 C 130.250 298.153,130.715 298.332,131.203 298.332 C 131.691 298.332,132.269 298.546,132.486 298.809 C 132.704 299.071,133.349 299.285,133.921 299.285 C 134.551 299.285,135.032 299.473,135.143 299.762 C 135.243 300.024,135.682 300.238,136.119 300.238 C 136.619 300.238,137.049 300.502,137.284 300.953 C 137.488 301.346,137.695 301.715,137.744 301.773 C 137.792 301.830,138.195 301.640,138.638 301.349 C 139.524 300.769,140.658 300.949,141.254 301.764 C 141.477 302.069,141.869 302.174,142.331 302.054 C 142.858 301.916,143.292 302.099,143.918 302.725 C 144.763 303.570,144.807 303.578,146.226 303.137 C 147.898 302.618,148.689 302.807,148.689 303.723 C 148.689 304.401,149.150 304.591,149.484 304.051 C 149.815 303.515,153.128 303.656,153.342 304.215 C 153.444 304.481,153.690 304.678,153.888 304.654 C 155.899 304.413,157.208 304.721,157.398 305.481 C 157.656 306.509,158.770 306.570,158.914 305.563 C 159.040 304.676,159.989 304.442,160.200 305.247 C 160.343 305.796,160.556 305.817,163.179 305.546 C 167.121 305.139,172.033 305.699,173.111 306.678 C 173.540 307.068,173.800 307.227,173.689 307.032 C 173.138 306.068,174.649 305.581,175.366 306.492 C 175.976 307.267,176.099 307.312,176.356 306.853 C 176.643 306.341,180.164 306.190,180.644 306.670 C 180.742 306.768,181.195 306.656,181.649 306.421 C 182.203 306.134,182.658 306.090,183.030 306.290 C 183.336 306.453,184.026 306.499,184.564 306.391 C 185.117 306.281,185.729 306.351,185.972 306.552 C 186.300 306.824,186.542 306.752,187.004 306.241 C 187.500 305.694,187.847 305.607,188.945 305.758 C 189.680 305.859,190.353 305.826,190.440 305.685 C 190.527 305.544,191.713 305.481,193.075 305.543 C 194.437 305.606,195.838 305.649,196.187 305.639 C 205.016 305.387,207.014 305.437,207.577 305.923 C 208.123 306.395,208.213 306.369,208.852 305.569 L 209.539 304.707 214.833 304.671 C 219.086 304.642,220.161 304.546,220.300 304.184 C 220.602 303.395,221.750 303.661,222.127 304.607 L 222.474 305.481 222.776 304.620 C 223.098 303.704,222.991 303.724,227.589 303.723 C 228.260 303.723,229.021 303.511,229.280 303.251 C 229.820 302.712,230.845 302.628,231.136 303.099 C 231.266 303.309,231.555 303.298,231.985 303.068 C 232.343 302.876,233.008 302.791,233.463 302.877 C 233.996 302.979,234.419 302.857,234.657 302.532 C 234.980 302.090,237.374 301.553,239.396 301.468 C 239.746 301.453,240.424 301.296,240.904 301.120 C 241.579 300.871,241.953 300.914,242.560 301.313 C 243.632 302.014,243.968 301.961,244.320 301.035 C 244.634 300.210,244.810 300.175,248.500 300.209 C 249.145 300.214,249.832 300.012,250.048 299.752 C 250.511 299.194,251.988 299.136,252.507 299.656 C 252.790 299.939,252.932 299.882,253.104 299.418 C 253.422 298.558,253.841 298.342,255.203 298.337 C 255.858 298.334,256.394 298.202,256.394 298.042 C 256.394 297.883,257.002 297.652,257.744 297.529 C 258.487 297.406,259.237 297.215,259.412 297.104 C 259.587 296.993,260.420 296.901,261.263 296.899 C 262.387 296.896,262.880 296.748,263.106 296.343 C 263.339 295.927,263.829 295.790,265.086 295.790 C 266.063 295.790,267.013 295.597,267.374 295.324 C 267.713 295.067,268.518 294.853,269.163 294.847 C 269.808 294.842,270.422 294.698,270.527 294.528 C 270.849 294.007,272.827 293.194,273.506 293.304 C 273.900 293.367,274.569 292.999,275.240 292.350 C 276.050 291.566,276.561 291.320,277.217 291.397 C 277.879 291.475,278.369 291.233,279.168 290.430 C 280.065 289.530,280.392 289.390,281.212 289.555 C 282.051 289.722,282.420 289.548,283.822 288.322 C 284.719 287.537,285.711 286.894,286.026 286.894 C 286.708 286.894,288.062 286.061,288.996 285.068 C 289.365 284.674,289.956 284.353,290.307 284.353 C 290.659 284.353,291.125 284.138,291.342 283.876 C 291.560 283.614,291.913 283.400,292.126 283.400 C 292.340 283.400,292.787 283.093,293.120 282.718 C 293.843 281.903,296.879 279.905,297.394 279.905 C 297.594 279.905,298.423 279.318,299.236 278.601 C 300.050 277.884,301.251 277.082,301.906 276.819 C 302.562 276.556,303.098 276.209,303.098 276.048 C 303.098 275.886,303.326 275.667,303.605 275.560 C 303.883 275.453,304.559 274.957,305.105 274.458 C 305.652 273.959,306.223 273.550,306.375 273.550 C 306.527 273.550,307.520 272.764,308.582 271.803 C 309.644 270.842,310.681 270.056,310.885 270.056 C 311.090 270.056,312.102 269.259,313.135 268.285 C 314.167 267.311,315.441 266.307,315.965 266.053 C 317.563 265.278,318.198 264.848,319.005 263.995 C 319.430 263.545,320.031 263.084,320.341 262.970 C 320.651 262.856,320.994 262.509,321.105 262.199 C 321.346 261.522,322.801 260.234,323.342 260.218 C 323.554 260.212,324.601 259.294,325.667 258.179 C 327.403 256.363,327.769 256.131,329.177 255.944 C 330.642 255.749,330.725 255.691,330.399 255.081 C 330.110 254.542,330.165 254.346,330.711 253.963 C 331.076 253.707,331.374 253.357,331.374 253.185 C 331.374 252.769,334.723 249.404,335.138 249.404 C 335.316 249.404,335.550 249.126,335.658 248.785 C 335.766 248.445,336.142 248.075,336.493 247.963 C 336.844 247.852,337.288 247.418,337.478 247.000 C 337.669 246.582,338.089 246.156,338.412 246.053 C 338.735 245.951,338.999 245.620,338.999 245.319 C 338.999 245.018,339.464 244.317,340.032 243.761 C 343.714 240.159,344.424 239.426,345.164 238.455 C 345.618 237.860,345.989 237.242,345.989 237.080 C 345.989 236.324,349.278 233.511,349.932 233.708 C 350.472 233.871,350.522 233.830,350.199 233.491 C 349.605 232.868,349.715 232.176,350.552 231.273 C 350.964 230.828,351.466 230.158,351.666 229.784 C 351.866 229.410,352.587 228.461,353.268 227.674 C 353.949 226.887,354.882 225.486,355.342 224.559 C 355.802 223.633,356.458 222.446,356.799 221.922 C 357.432 220.949,357.620 220.567,357.907 219.662 C 358.012 219.332,358.295 219.208,358.701 219.315 C 359.173 219.438,359.333 219.322,359.333 218.855 C 359.333 218.512,359.201 218.312,359.041 218.411 C 358.438 218.784,357.744 217.582,357.744 216.166 C 357.744 214.907,357.580 214.577,356.315 213.293 C 355.528 212.496,354.885 211.716,354.885 211.561 C 354.885 211.406,354.485 211.279,353.995 211.279 C 353.506 211.279,352.940 211.113,352.737 210.910 C 352.534 210.707,351.500 210.516,350.439 210.487 C 349.379 210.457,348.344 210.266,348.139 210.062 C 347.618 209.540,347.260 209.600,347.260 210.208 C 347.260 210.811,344.032 214.011,343.136 214.295 C 342.801 214.401,342.445 214.744,342.346 215.057 C 342.247 215.369,341.806 215.818,341.366 216.053 C 340.926 216.289,340.271 216.958,339.911 217.540 C 339.551 218.123,338.770 218.971,338.175 219.425 C 337.580 219.879,337.093 220.448,337.093 220.689 C 337.093 220.930,336.907 221.128,336.680 221.128 C 336.235 221.128,333.598 223.533,333.598 223.940 C 333.598 224.076,332.955 224.669,332.168 225.258 C 331.382 225.847,330.739 226.508,330.739 226.725 C 330.739 226.943,330.470 227.207,330.141 227.311 C 329.813 227.415,328.318 228.697,326.819 230.160 C 325.320 231.622,323.667 233.007,323.146 233.237 C 322.626 233.468,322.050 233.986,321.866 234.388 C 321.683 234.791,321.174 235.257,320.735 235.423 C 320.296 235.590,319.936 235.921,319.936 236.157 C 319.936 236.394,319.329 237.027,318.586 237.563 C 317.844 238.099,316.892 238.838,316.472 239.205 C 316.053 239.572,315.584 239.873,315.432 239.873 C 315.280 239.873,315.022 240.223,314.860 240.650 C 314.652 241.195,314.232 241.490,313.456 241.635 C 312.646 241.787,312.321 242.027,312.250 242.526 C 312.190 242.949,311.886 243.247,311.453 243.308 C 311.068 243.363,310.665 243.685,310.558 244.023 C 310.358 244.653,309.090 245.163,308.551 244.830 C 308.385 244.727,308.165 244.975,308.064 245.381 C 307.949 245.839,307.340 246.396,306.464 246.847 C 305.686 247.247,304.655 247.986,304.173 248.489 C 303.178 249.528,302.882 249.595,302.158 248.940 C 301.698 248.523,301.646 248.563,301.656 249.328 C 301.665 249.934,301.484 250.216,301.033 250.302 C 300.683 250.369,300.183 250.608,299.921 250.833 C 299.658 251.059,299.042 251.241,298.550 251.237 C 298.031 251.234,297.297 251.563,296.802 252.020 C 295.768 252.978,294.027 253.849,293.120 253.862 C 292.754 253.868,292.177 254.082,291.838 254.339 C 291.498 254.595,290.984 254.805,290.694 254.805 C 290.403 254.805,289.487 255.166,288.658 255.608 C 287.694 256.120,286.738 256.382,286.012 256.333 C 285.329 256.287,284.823 256.414,284.744 256.651 C 284.502 257.374,281.205 258.529,278.687 258.771 C 278.104 258.827,277.347 259.174,277.005 259.541 C 276.502 260.081,276.149 260.172,275.172 260.016 C 274.257 259.870,273.917 259.940,273.777 260.302 C 273.676 260.566,273.156 260.878,272.622 260.995 C 272.088 261.113,271.570 261.341,271.470 261.502 C 271.201 261.937,269.063 261.853,268.141 261.372 C 267.382 260.976,267.339 260.998,267.347 261.771 C 267.354 262.525,267.251 262.587,266.028 262.564 C 264.961 262.543,264.668 262.661,264.536 263.165 C 264.389 263.731,264.193 263.772,262.562 263.580 C 261.223 263.423,260.618 263.483,260.240 263.810 C 259.960 264.053,258.878 264.348,257.836 264.464 C 256.794 264.581,255.864 264.801,255.769 264.955 C 255.674 265.109,254.525 265.293,253.215 265.365 C 251.906 265.436,250.358 265.699,249.776 265.948 C 248.820 266.358,248.678 266.348,248.311 265.846 C 247.809 265.159,246.994 265.124,246.743 265.779 C 246.473 266.483,230.254 266.427,229.667 265.720 C 229.437 265.442,228.722 265.271,227.830 265.278 C 227.027 265.285,226.048 265.289,225.655 265.287 C 225.236 265.284,224.940 265.087,224.940 264.810 C 224.940 264.183,224.107 264.201,223.865 264.833 C 223.537 265.688,221.280 265.320,221.312 264.416 C 221.326 264.023,221.230 263.701,221.100 263.701 C 220.461 263.701,219.857 264.141,219.852 264.609 C 219.849 264.944,219.764 265.003,219.614 264.774 C 219.472 264.558,218.356 264.420,216.769 264.424 C 215.023 264.429,213.985 264.287,213.636 263.998 C 213.272 263.696,212.309 263.583,210.464 263.624 C 208.421 263.670,207.501 263.542,206.449 263.064 C 205.667 262.709,204.377 262.441,203.431 262.437 C 202.464 262.433,201.674 262.266,201.525 262.033 C 201.385 261.815,200.770 261.622,200.159 261.605 C 198.840 261.567,196.932 260.855,196.554 260.259 C 196.391 260.002,195.994 259.908,195.547 260.021 C 194.597 260.259,193.805 259.951,193.805 259.344 C 193.805 258.991,193.593 258.920,192.996 259.070 C 192.539 259.184,191.814 259.085,191.328 258.842 C 190.855 258.605,189.992 258.171,189.410 257.879 C 188.828 257.586,187.878 257.347,187.300 257.347 C 186.657 257.347,186.176 257.161,186.065 256.871 C 185.951 256.574,185.466 256.394,184.779 256.394 C 184.172 256.394,183.587 256.251,183.479 256.076 C 183.371 255.902,182.951 255.759,182.546 255.759 C 182.141 255.759,181.631 255.544,181.414 255.282 C 181.196 255.020,180.623 254.805,180.141 254.805 C 179.056 254.805,177.971 253.391,178.461 252.615 C 179.119 251.571,182.798 249.635,184.191 249.598 C 185.210 249.572,185.541 249.437,185.542 249.046 C 185.545 248.335,186.126 247.937,187.530 247.684 C 188.507 247.508,188.721 247.562,188.721 247.987 C 188.721 248.929,189.514 248.263,189.615 247.235 C 189.671 246.665,189.896 246.227,190.132 246.227 C 190.362 246.227,190.740 245.998,190.973 245.718 C 191.271 245.358,191.733 245.253,192.547 245.363 C 193.439 245.482,193.783 245.382,194.072 244.919 C 194.302 244.550,194.809 244.321,195.396 244.321 C 195.919 244.321,196.346 244.184,196.346 244.018 C 196.346 243.851,196.882 243.628,197.538 243.524 C 198.193 243.419,198.977 243.198,199.281 243.033 C 199.584 242.867,200.375 242.732,201.037 242.732 C 201.699 242.732,202.572 242.501,202.976 242.218 C 203.478 241.866,204.100 241.755,204.942 241.868 C 205.957 242.004,206.206 241.927,206.364 241.430 C 206.569 240.784,208.258 240.619,209.531 241.121 C 209.997 241.305,210.347 241.179,210.843 240.648 C 211.405 240.046,211.742 239.953,212.829 240.099 C 213.900 240.242,214.138 240.180,214.138 239.756 C 214.138 239.471,214.317 239.224,214.535 239.208 C 214.754 239.192,215.545 239.133,216.294 239.079 C 217.043 239.024,217.849 238.818,218.085 238.622 C 218.403 238.358,218.721 238.359,219.305 238.625 C 219.883 238.889,220.270 238.891,220.749 238.635 C 221.109 238.442,221.776 238.284,222.230 238.284 C 222.685 238.284,223.404 238.056,223.830 237.778 C 224.364 237.428,225.129 237.305,226.303 237.381 C 227.636 237.466,228.131 237.362,228.595 236.900 C 229.089 236.406,229.480 236.342,230.987 236.513 C 232.399 236.673,232.875 236.611,233.192 236.230 C 233.639 235.692,235.425 235.556,235.425 236.060 C 235.425 236.643,236.015 236.387,236.229 235.711 C 236.529 234.767,237.540 233.836,238.266 233.836 C 238.605 233.836,238.971 233.693,239.079 233.519 C 239.187 233.344,239.588 233.201,239.971 233.200 C 240.394 233.199,240.917 232.821,241.303 232.237 C 241.652 231.708,242.689 230.755,243.606 230.120 C 244.523 229.485,245.274 228.720,245.274 228.421 C 245.274 228.122,245.488 227.700,245.751 227.482 C 247.097 226.364,246.176 221.774,244.115 219.330 C 243.354 218.428,242.732 217.558,242.732 217.395 C 242.732 217.233,242.375 216.937,241.938 216.738 C 241.501 216.539,241.144 216.230,241.144 216.051 C 241.144 215.873,240.929 215.727,240.667 215.727 C 240.083 215.727,240.013 214.256,240.588 214.046 C 240.897 213.932,240.900 213.810,240.604 213.495 C 240.297 213.169,240.069 213.192,239.424 213.614 C 238.429 214.266,237.530 214.284,237.014 213.662 C 236.796 213.400,236.367 213.185,236.060 213.185 C 235.754 213.185,235.325 212.971,235.107 212.708 C 234.890 212.446,234.329 212.232,233.861 212.232 C 233.393 212.232,232.875 212.098,232.708 211.933 C 232.542 211.769,232.001 211.562,231.505 211.473 C 231.010 211.384,230.438 211.174,230.235 211.008 C 230.031 210.841,229.041 210.603,228.033 210.478 C 226.907 210.339,226.096 210.063,225.929 209.764 C 225.733 209.415,225.379 209.332,224.675 209.473 C 224.001 209.608,223.540 209.515,223.200 209.176 C 222.851 208.826,222.101 208.687,220.632 208.698 C 219.139 208.709,218.510 208.590,218.387 208.271 C 218.294 208.027,217.978 207.823,217.687 207.818 C 213.064 207.738,212.391 207.628,212.293 206.937 C 212.175 206.113,211.403 205.731,211.156 206.374 C 210.915 207.002,209.804 206.950,209.554 206.299 C 209.376 205.834,209.287 205.858,208.846 206.488 C 208.425 207.090,208.150 207.177,207.189 207.016 C 206.555 206.910,205.641 206.827,205.158 206.833 C 204.674 206.838,203.888 206.643,203.410 206.401 C 202.784 206.083,201.513 205.983,198.853 206.044 C 196.824 206.091,194.977 206.013,194.749 205.872 C 194.521 205.731,193.985 205.749,193.558 205.911 C 193.082 206.092,192.371 206.093,191.719 205.913 C 190.894 205.685,190.567 205.726,190.258 206.099 C 189.909 206.520,189.792 206.495,189.305 205.893 C 188.768 205.230,188.724 205.226,187.903 205.764 C 187.108 206.285,187.031 206.286,186.662 205.781 C 186.118 205.036,185.772 205.104,185.029 206.099 M299.051 215.123 C 298.967 215.443,298.624 215.793,298.288 215.900 C 297.952 216.006,297.369 216.762,296.993 217.578 C 296.618 218.395,295.907 219.532,295.415 220.106 C 294.922 220.680,294.519 221.311,294.519 221.508 C 294.519 221.704,294.076 222.261,293.534 222.745 C 292.992 223.229,292.631 223.760,292.733 223.924 C 292.954 224.281,291.897 225.576,291.384 225.576 C 291.187 225.576,291.025 225.780,291.025 226.030 C 291.025 226.279,290.846 226.673,290.627 226.903 C 289.705 227.878,288.483 229.695,288.483 230.091 C 288.483 230.326,288.233 230.754,287.927 231.043 C 287.018 231.900,286.577 232.515,286.577 232.921 C 286.577 233.131,285.790 234.348,284.829 235.625 C 283.868 236.902,283.082 238.131,283.082 238.357 C 283.082 238.583,282.636 239.124,282.092 239.559 C 280.547 240.793,279.895 241.547,279.699 242.329 C 279.600 242.726,279.411 243.050,279.280 243.050 C 278.989 243.050,275.139 247.706,275.139 248.058 C 275.139 248.534,273.808 249.449,273.364 249.279 C 273.091 249.174,272.732 249.472,272.433 250.051 C 272.165 250.569,271.805 250.993,271.634 250.993 C 271.462 250.993,271.006 251.356,270.620 251.801 C 269.755 252.796,266.663 254.507,266.113 254.296 C 265.891 254.211,265.365 254.647,264.944 255.265 C 263.916 256.774,263.066 256.775,263.066 255.268 C 263.066 254.128,263.242 253.895,265.570 251.946 C 266.092 251.509,266.529 250.978,266.540 250.766 C 266.551 250.553,266.820 250.241,267.137 250.071 C 268.137 249.536,281.493 236.008,281.493 235.530 C 281.493 235.356,281.918 234.796,282.438 234.286 C 282.957 233.777,283.386 233.118,283.391 232.823 C 283.396 232.527,283.528 232.206,283.686 232.108 C 284.396 231.669,284.438 228.168,283.744 227.285 C 281.368 224.265,277.051 225.172,275.243 229.071 C 274.691 230.259,273.067 232.749,272.693 232.978 C 272.466 233.118,272.280 233.440,272.280 233.693 C 272.280 233.947,272.137 234.154,271.962 234.154 C 271.787 234.154,271.644 234.423,271.644 234.751 C 271.644 235.079,271.430 235.525,271.168 235.743 C 270.905 235.960,270.691 236.303,270.691 236.505 C 270.691 236.982,268.921 238.920,268.485 238.920 C 268.300 238.920,268.149 239.179,268.149 239.496 C 268.149 239.813,267.720 240.483,267.196 240.985 C 266.672 241.487,266.243 242.101,266.243 242.349 C 266.243 242.955,264.383 245.274,263.897 245.274 C 263.685 245.274,263.318 245.810,263.082 246.465 C 262.847 247.121,262.286 248.157,261.836 248.769 C 259.602 251.806,253.935 257.347,253.062 257.347 C 252.798 257.347,252.581 257.459,252.581 257.595 C 252.581 257.731,251.796 258.410,250.836 259.104 C 249.033 260.407,248.892 260.716,249.839 261.296 C 250.270 261.560,250.487 261.511,250.807 261.081 C 251.034 260.776,251.669 260.437,252.218 260.327 C 252.768 260.217,253.217 260.021,253.217 259.891 C 253.217 259.622,256.930 257.891,257.678 257.810 C 257.947 257.782,258.575 257.380,259.074 256.917 C 259.573 256.455,260.175 256.076,260.412 256.076 C 260.998 256.076,260.959 257.322,260.365 257.550 C 259.330 257.947,259.925 258.361,261.239 258.159 C 261.982 258.045,263.040 257.947,263.591 257.942 C 264.308 257.936,264.639 257.759,264.753 257.322 C 264.847 256.963,265.189 256.712,265.584 256.712 C 265.954 256.712,266.829 256.350,267.529 255.908 C 268.230 255.465,269.264 255.015,269.826 254.907 C 270.389 254.799,271.207 254.466,271.644 254.167 C 272.635 253.490,274.612 252.556,275.258 252.461 C 275.525 252.422,276.012 252.147,276.340 251.850 C 276.668 251.553,277.119 251.311,277.342 251.311 C 277.565 251.311,278.029 250.953,278.373 250.516 C 278.717 250.079,279.232 249.722,279.518 249.722 C 279.805 249.722,280.760 248.964,281.640 248.037 C 282.520 247.111,283.884 245.864,284.670 245.267 C 285.457 244.669,286.895 243.390,287.867 242.424 C 288.839 241.458,290.798 239.595,292.221 238.284 C 293.644 236.974,294.815 235.683,294.823 235.416 C 294.837 234.926,295.902 233.836,296.367 233.836 C 296.506 233.836,297.365 233.050,298.276 232.089 C 299.187 231.128,300.134 230.342,300.381 230.342 C 300.629 230.342,300.925 230.020,301.040 229.627 C 301.156 229.234,301.732 228.411,302.320 227.800 C 304.273 225.771,305.322 224.387,305.322 223.836 C 305.322 223.537,305.583 223.224,305.903 223.140 C 306.641 222.947,306.511 217.978,305.757 217.538 C 305.518 217.398,305.322 217.008,305.322 216.670 C 305.322 216.263,305.027 215.986,304.448 215.848 C 303.967 215.733,303.425 215.522,303.241 215.380 C 302.386 214.713,299.209 214.518,299.051 215.123 M276.644 253.575 C 276.037 253.915,275.880 255.590,276.424 255.926 C 276.912 256.228,277.681 255.466,277.676 254.687 C 277.668 253.631,277.284 253.217,276.644 253.575 M247.863 261.461 C 247.933 261.671,248.094 261.832,248.221 261.819 C 248.601 261.780,248.527 261.344,248.118 261.207 C 247.908 261.137,247.793 261.252,247.863 261.461 M245.909 262.270 C 245.909 262.811,246.622 263.701,247.055 263.701 C 247.862 263.701,247.465 262.290,246.624 262.170 C 246.231 262.114,245.909 262.159,245.909 262.270 " stroke="none" fill="#0c149c" fill-rule="evenodd"></path></g></svg>